<svg width="801" height="450" viewBox="0 0 801 450" fill="none" xmlns="http://www.w3.org/2000/svg"><rect width="800" height="450" transform="translate(0.561035)" fill="#D4E0ED"/><path d="M334.338 182.574H584.746C609.214 182.574 629.049 202.409 629.049 226.878V226.878C629.049 251.346 609.214 271.181 584.746 271.181H334.338V182.574Z" fill="white"/><circle cx="14.1863" cy="14.1863" r="14.1863" transform="matrix(1 0 0 -1 350.208 239.187)" fill="black"/><circle cx="14.1863" cy="14.1863" r="14.1863" transform="matrix(1 0 0 -1 386.996 239.187)" fill="black"/><circle cx="14.1863" cy="14.1863" r="14.1863" transform="matrix(1 0 0 -1 423.784 239.187)" fill="black"/><circle cx="14.1863" cy="14.1863" r="14.1863" transform="matrix(1 0 0 -1 460.573 239.187)" fill="black"/><circle cx="14.1863" cy="14.1863" r="14.1863" transform="matrix(1 0 0 -1 497.361 239.187)" fill="black"/><path d="M603.159 223.636H599.524C597.95 210.641 586.638 200.17 572.966 200.17C565.587 200.17 558.859 203.344 554.166 208.281C552.782 209.583 552.81 211.347 553.84 212.377C554.926 213.463 556.553 213.598 558.045 212.296C561.789 208.39 567.106 205.894 572.966 205.894C583.627 205.894 592.226 213.68 593.718 223.636H589.758C587.75 223.636 587.181 225.182 588.374 226.864L594.722 235.735C595.699 237.091 597.218 237.091 598.195 235.735L604.542 226.891C605.763 225.209 605.221 223.636 603.159 223.636ZM542.745 230.146H546.435C548.008 243.113 559.293 253.585 572.966 253.585C580.399 253.585 587.126 250.384 591.819 245.446C593.176 244.171 593.122 242.381 592.118 241.35C591.033 240.265 589.405 240.156 587.913 241.459C584.197 245.392 578.879 247.861 572.966 247.861C562.304 247.861 553.732 240.075 552.213 230.146H556.146C558.154 230.146 558.751 228.573 557.53 226.891L551.209 218.02C550.232 216.664 548.686 216.664 547.71 218.02L541.362 226.891C540.141 228.573 540.683 230.146 542.745 230.146Z" fill="#9EB9D7"/><rect x="169.476" y="146.777" width="156.446" height="156.446" rx="33" fill="#006699"/><path fill-rule="evenodd" clip-rule="evenodd" d="M219.72 273.987V207.881H197.748V273.987H219.72ZM208.734 198.855C216.396 198.855 221.165 193.779 221.165 187.435C221.023 180.948 216.396 176.013 208.879 176.013C201.363 176.013 196.449 180.948 196.449 187.435C196.449 193.779 201.217 198.855 208.591 198.855H208.734Z" fill="white"/><path fill-rule="evenodd" clip-rule="evenodd" d="M231.879 273.987H253.851V237.071C253.851 235.095 253.994 233.121 254.574 231.709C256.162 227.761 259.778 223.673 265.848 223.673C273.799 223.673 276.979 229.735 276.979 238.622V273.987H298.95V236.083C298.95 215.778 288.11 206.329 273.653 206.329C261.8 206.329 256.596 212.955 253.705 217.468H253.852V207.881H231.879C232.167 214.084 231.879 273.987 231.879 273.987Z" fill="white"/></svg>